<svg width="35" height="28" viewBox="0 0 35 28" fill="none" xmlns="http://www.w3.org/2000/svg">
<path fill-rule="evenodd" clip-rule="evenodd" d="M28.4013 26.8446V19.4868C31.2848 17.5333 32.9575 14.7501 33.012 11.8148C33.0436 6.0923 27.1071 1.37817 19.5826 1.15058C15.8449 1.06786 12.2223 2.13866 9.54057 4.11893C6.85881 6.0992 5.34637 8.8202 5.34795 11.6618V12.8297L2.27417 18.6693L5.34795 19.8372V24.5088C5.34795 25.7989 6.72413 26.8446 8.42173 26.8446H14.5693C16.6073 26.8446 18.5619 26.2294 20.003 25.1343C21.4441 24.0391 22.2538 22.5538 22.2538 21.0051V15.1655" fill="#FF5934"/>
<path d="M28.4013 26.8446V19.4868C31.2848 17.5333 32.9575 14.7501 33.012 11.8148C33.0436 6.0923 27.1071 1.37817 19.5826 1.15058C15.8449 1.06786 12.2223 2.13866 9.54057 4.11893C6.85881 6.0992 5.34637 8.8202 5.34795 11.6618V12.8297L2.27417 18.6693L5.34795 19.8372V24.5088C5.34795 25.7989 6.72413 26.8446 8.42173 26.8446H14.5693C16.6073 26.8446 18.5619 26.2294 20.003 25.1343C21.4441 24.0391 22.2538 22.5538 22.2538 21.0051V15.1655" stroke="#F4F4FF" stroke-width="2" stroke-linecap="square"/>
</svg>
